<defs>
<font horiz-adv-x="904" ><font-face
    font-family="sansation-light-italic"
    units-per-em="2048"
    panose-1="2 0 0 0 0 0 0 0 0 0"
    ascent="1854"
    descent="-438"
    alphabetic="0" />
<missing-glyph horiz-adv-x="1124" d="M50 0V1280H1074V0H50ZM82 32H1042V1248H82V32Z" />
<glyph unicode=" " glyph-name="space" horiz-adv-x="500" />
<glyph unicode="!" glyph-name="exclam" horiz-adv-x="425" d="M409 1430L197 370H92L304 1430H409ZM144 105L123 0H18L39 105H144Z" />
<glyph unicode="&quot;" glyph-name="quotedbl" horiz-adv-x="625" d="M659 1430L542 995H487L544 1430H659ZM369 1430L252 995H197L254 1430H369Z" />
<glyph unicode="#" glyph-name="numbersign" horiz-adv-x="1903" d="M772 906L575 468H1032L1229 906H772ZM260 -5L435 374H43L82 468H474L670 906H269L308 1000H710L905 1425H1005L810 1000H1268L1466 1430H1566L1369 1000H1851L1812 906H1330L1134 468H1625L1586
374H1094L918 -5H818L994 374H536L360 -5H260Z" />
<glyph unicode="$" glyph-name="dollar" horiz-adv-x="1030" d="M585 1238L623 1430H718L680 1240Q834 1236 986 1190L966 1090Q803 1150 635 1150Q303 1150 261 940Q225 760 450 760H580Q930 760 876 490Q823 223 471 194L432 0H337L375 190Q208 191 46 240L66
340Q229 280 398 280Q729 280 771 490Q805 660 560 660H430Q100 660 156 940Q211 1216 585 1238Z" />
<glyph unicode="%" glyph-name="percent" horiz-adv-x="1362" d="M93 0H-32L1271 1430H1396L93 0ZM269 1005T447 1005Q621 1005 656 1182Q691 1356 517 1356Q339 1356 304 1182Q269 1005 447 1005ZM204 1180Q256 1440 534 1440Q808 1440 756 1180Q704 921 430
921Q152 921 204 1180ZM673 74T851 74Q1025 74 1060 251Q1095 425 921 425Q743 425 708 251Q673 74 851 74ZM608 249Q660 509 938 509Q1212 509 1160 249Q1108 -10 834 -10Q556 -10 608 249Z" />
<glyph unicode="&amp;" glyph-name="ampersand" horiz-adv-x="1295" d="M177 1045Q254 1430 764 1430Q949 1430 1114 1380L1096 1290Q921 1340 749 1340Q341 1340 283 1050Q227 770 562 770H1030L1064 942H1137L1125 770H1297L1279 680H1117L1079 490Q980 -3 462
-3Q-33 -3 46 394Q96 641 336 727Q126 792 177 1045ZM546 680Q209 680 152 399Q91 90 472 90Q894 90 974 492L1012 680H546Z" />
<glyph unicode="&apos;" glyph-name="quotesingle" horiz-adv-x="335" d="M369 1430L252 995H197L254 1430H369Z" />
<glyph unicode="(" glyph-name="parenleft" horiz-adv-x="525" d="M559 1430Q268 978 178 525Q87 72 197 -380H92Q-18 72 73 525Q163 978 454 1430H559Z" />
<glyph unicode=")" glyph-name="parenright" horiz-adv-x="525" d="M359 1430Q469 978 378 525Q287 72 -3 -380H-108Q182 72 273 525Q364 978 254 1430H359Z" />
<glyph unicode="*" glyph-name="asterisk" horiz-adv-x="830" d="M482 1430H638L562 1198L791 1299L809 1152L573 1109L698 939L556 847L484 1052L331 848L224 937L420 1108L198 1150L276 1300L466 1197L482 1430Z" />
<glyph unicode="+" glyph-name="plus" horiz-adv-x="970" d="M412 570L478 900H578L512 570H832L814 480H494L428 150H328L394 480H64L82 570H412Z" />
<glyph unicode="," glyph-name="comma" horiz-adv-x="305" d="M175 185L-62 -250H-167L70 185H175Z" />
<glyph unicode="-" glyph-name="hyphen" horiz-adv-x="720" d="M582 570L564 480H64L82 570H582Z" />
<glyph unicode="." glyph-name="period" horiz-adv-x="355" d="M128 125L103 0H-32L-7 125H128Z" />
<glyph unicode="/" glyph-name="slash" horiz-adv-x="985" d="M8 0H-107L904 1430H1019L8 0Z" />
<glyph unicode="0" glyph-name="zero" horiz-adv-x="1445" d="M99 80T602 80Q1094 80 1222 719Q1348 1350 856 1350Q353 1350 227 719Q99 80 602 80ZM111 713Q256 1440 874 1440Q1481 1440 1336 713Q1191 -10 584 -10Q-2 -10 111 713Z" />
<glyph unicode="1" glyph-name="one" horiz-adv-x="605" d="M118 0L380 1311H230L242 1370L511 1440L223 0H118Z" />
<glyph unicode="2" glyph-name="two" horiz-adv-x="1230" d="M-32 0L-14 90Q982 697 1047 1020Q1113 1350 693 1350Q473 1350 256 1240L276 1340Q491 1440 711 1440Q1236 1440 1152 1020Q1078 650 142 90H966L948 0H-32Z" />
<glyph unicode="3" glyph-name="three" horiz-adv-x="1160" d="M244 1380Q456 1440 656 1440Q1171 1440 1093 1050Q1042 794 790 725Q1015 660 963 400Q881 -10 366 -10Q166 -10 -22 50L-2 150Q184 80 384 80Q794 80 858 400Q914 680 582 680H254L272 770H597Q932
770 988 1050Q1048 1350 638 1350Q438 1350 224 1280L244 1380Z" />
<glyph unicode="4" glyph-name="four" horiz-adv-x="1220" d="M845 0H740L808 340H-14L4 430L829 1430H943L117 430H826L940 998H1045L931 430L1082 394L1071 340H913L845 0Z" />
<glyph unicode="5" glyph-name="five" horiz-adv-x="1145" d="M309 1430H1133L1115 1340H379L241 818Q432 840 561 840Q1071 840 991 440Q901 -10 371 -10Q171 -10 -17 50L3 150Q189 80 399 80Q814 80 886 440Q948 750 543 750Q318 750 113 700L309 1430Z" />
<glyph unicode="6" glyph-name="six" horiz-adv-x="1250" d="M78 550Q189 1106 921 1473L951 1396Q460 1133 299 857Q493 920 668 920Q1192 920 1102 470Q1006 -10 493 -10Q-34 -10 78 550ZM79 80T520 80Q923 80 1001 470Q1073 830 651 830Q437 830 253 762Q201
692 174 556Q79 80 520 80Z" />
<glyph unicode="7" glyph-name="seven" horiz-adv-x="1135" d="M254 1430H1224L1206 1340L276 0H155L1095 1340H236L254 1430Z" />
<glyph unicode="8" glyph-name="eight" horiz-adv-x="1260" d="M53 424Q101 667 369 745Q174 830 224 1078Q297 1444 777 1444Q1257 1444 1184 1078Q1134 830 900 745Q1141 667 1093 424Q1006 -10 486 -10Q-34 -10 53 424ZM1021 790T1075 1058Q1133 1350 750 1350Q383
1350 325 1058Q271 790 651 790Q1021 790 1075 1058ZM919 80T987 418Q1043 700 620 700Q213 700 157 418Q89 80 509 80Q919 80 987 418Z" />
<glyph unicode="9" glyph-name="nine" horiz-adv-x="1210" d="M1185 883Q1074 327 342 -40L302 37Q803 300 964 576Q770 513 595 513Q71 513 161 963Q257 1443 770 1443Q1297 1443 1185 883ZM1184 1353T743 1353Q340 1353 262 963Q190 603 612 603Q826 603 1010
671Q1062 741 1089 877Q1184 1353 743 1353Z" />
<glyph unicode=":" glyph-name="colon" horiz-adv-x="395" d="M353 1050L328 925H193L218 1050H353ZM168 125L143 0H8L33 125H168Z" />
<glyph unicode=";" glyph-name="semicolon" horiz-adv-x="545" d="M260 185L23 -250H-82L155 185H260ZM453 1050L428 925H293L318 1050H453Z" />
<glyph unicode="&lt;" glyph-name="less" horiz-adv-x="1120" d="M62 470L84 580L1068 1000L1046 890L159 521L900 160L878 50L62 470Z" />
<glyph unicode="=" glyph-name="equal" horiz-adv-x="970" d="M802 420L784 330H34L52 420H802ZM862 720L844 630H94L112 720H862Z" />
<glyph unicode="&gt;" glyph-name="greater" horiz-adv-x="1120" d="M-22 50L0 160L885 521L146 890L168 1000L984 580L962 470L-22 50Z" />
<glyph unicode="?" glyph-name="question" horiz-adv-x="1135" d="M284 105L263 0H158L179 105H284ZM244 1380Q464 1430 654 1430Q1169 1430 1091 1040Q1013 650 516 650H393L337 370H232L306 740H531Q926 740 986 1040Q1046 1340 636 1340Q446 1340 226 1290L244 1380Z" />
<glyph unicode="@" glyph-name="at" horiz-adv-x="2170" d="M1419 932Q1289 956 1149 956Q774 956 688 523Q603 100 860 100Q1104 100 1304 354L1419 932ZM1356 88Q1326 -60 1466 -60Q1751 -60 1871 540Q2033 1350 1227 1350Q393 1350 231 540Q65 -290 830 -290L812
-380Q-58 -380 126 540Q306 1440 1230 1440Q2156 1440 1976 540Q1838 -150 1451 -150Q1203 -150 1248 74L1283 250Q1075 0 839 0Q481 0 585 521Q691 1050 1176 1050Q1389 1050 1539 1007L1356 88Z" />
<glyph unicode="A" glyph-name="A" horiz-adv-x="1492" d="M12 0H-107L826 1430H951L1315 0H1197L1081 480H440L489 570H1060L873 1348L12 0Z" />
<glyph unicode="B" glyph-name="B" horiz-adv-x="1330" d="M18 0L304 1430H914Q1322 1430 1255 1097Q1207 853 890 748Q1193 695 1137 413Q1054 0 607 0H18ZM614 90Q960 90 1024 410Q1081 693 648 693H568L582 764Q1091 809 1147 1090Q1197 1340 889 1340H391L141
90H614Z" />
<glyph unicode="C" glyph-name="C" horiz-adv-x="1405" d="M1128 50Q921 -10 716 -10Q-34 -10 115 735Q256 1440 1006 1440Q1211 1440 1394 1380L1376 1290Q1193 1350 1008 1350Q343 1350 220 735Q89 80 754 80Q939 80 1146 140L1128 50Z" />
<glyph unicode="D" glyph-name="D" horiz-adv-x="1470" d="M536 90Q1131 90 1264 754Q1381 1340 786 1340H391L141 90H536ZM18 0L304 1430H814Q1514 1430 1379 754Q1228 0 518 0H18Z" />
<glyph unicode="E" glyph-name="E" horiz-adv-x="1248" d="M1243 1430L1225 1340H391L277 770H1077L1059 680H259L141 90H989L971 0H18L304 1430H1243Z" />
<glyph unicode="F" glyph-name="F" horiz-adv-x="1174" d="M1243 1430L1225 1340H391L277 770H1077L1059 680H259L123 0H18L304 1430H1243Z" />
<glyph unicode="G" glyph-name="G" horiz-adv-x="1405" d="M1129 56Q933 -10 733 -10Q-34 -10 115 735Q256 1440 1006 1440Q1211 1440 1394 1380L1376 1290Q1193 1350 1008 1350Q343 1350 220 735Q89 80 735 80Q867 80 1038 124L1143 650H1248L1129 56Z" />
<glyph unicode="H" glyph-name="H" horiz-adv-x="1505" d="M18 0L304 1430H409L277 770H1252L1384 1430H1489L1203 0H1098L1234 680H259L123 0H18Z" />
<glyph unicode="I" glyph-name="I" horiz-adv-x="525" d="M459 1430L173 0H68L354 1430H459Z" />
<glyph unicode="J" glyph-name="J" horiz-adv-x="650" d="M634 1430L430 412Q348 0 -107 0L-89 90Q261 90 325 412L529 1430H634Z" />
<glyph unicode="K" glyph-name="K" horiz-adv-x="1325" d="M409 1430L123 0H18L304 1430H409ZM1390 1430L557 729L1158 0H1011L448 698L462 770L1236 1430H1390Z" />
<glyph unicode="L" glyph-name="L" horiz-adv-x="1143" d="M409 1430L141 90H969L951 0H18L304 1430H409Z" />
<glyph unicode="M" glyph-name="M" horiz-adv-x="1770" d="M18 0L304 1430H409L793 123L1659 1430H1754L1468 0H1373L1620 1237L805 0H719L362 1247L113 0H18Z" />
<glyph unicode="N" glyph-name="N" horiz-adv-x="1505" d="M18 0L304 1430H419L1139 154L1394 1430H1489L1203 0H1118L375 1312L113 0H18Z" />
<glyph unicode="O" glyph-name="O" horiz-adv-x="1645" d="M99 80T702 80Q1294 80 1422 719Q1548 1350 956 1350Q353 1350 227 719Q99 80 702 80ZM111 713Q256 1440 974 1440Q1681 1440 1536 713Q1391 -10 684 -10Q-34 -10 111 713Z" />
<glyph unicode="P" glyph-name="P" horiz-adv-x="1263" d="M18 0L304 1430H904Q1322 1430 1243 1037Q1166 650 476 544L477 640Q1063 719 1125 1029Q1186 1337 868 1337H390L123 0H18Z" />
<glyph unicode="Q" glyph-name="Q" horiz-adv-x="1645" d="M702 80Q1294 80 1421 719Q1548 1350 956 1350Q353 1350 226 719Q99 80 702 80ZM613 -8Q-27 27 110 713Q256 1440 974 1440Q1681 1440 1535 713Q1394 9 721 -10Q765 -296 1063 -300Q1163 -300 1249 -270L1231
-360Q1145 -390 1045 -390Q640 -390 613 -8Z" />
<glyph unicode="R" glyph-name="R" horiz-adv-x="1235" d="M18 0L304 1430H894Q1282 1430 1213 1087Q1149 769 708 666L1058 0H934L592 663L606 736Q1039 799 1095 1079Q1146 1337 858 1337H390L123 0H18Z" />
<glyph unicode="S" glyph-name="S" horiz-adv-x="1310" d="M18 50L40 160Q249 80 520 80Q969 80 1037 420Q1087 670 795 670H501Q102 670 174 1030Q256 1440 841 1440Q1081 1440 1294 1380L1274 1280Q1063 1350 823 1350Q343 1350 279 1030Q227 770 521 770H815Q1212
770 1142 420Q1056 -10 502 -10Q231 -10 18 50Z" />
<glyph unicode="T" glyph-name="T" horiz-adv-x="1095" d="M1229 1430L1211 1340H721L453 0H348L616 1340H136L154 1430H1229Z" />
<glyph unicode="U" glyph-name="U" horiz-adv-x="1470" d="M128 552L304 1430H409L233 552Q139 80 609 80Q1079 80 1173 552L1349 1430H1454L1278 552Q1166 -10 591 -10Q16 -10 128 552Z" />
<glyph unicode="V" glyph-name="V" horiz-adv-x="1492" d="M1601 1430L688 0H523L179 1430H287L618 81L1482 1430H1601Z" />
<glyph unicode="W" glyph-name="W" horiz-adv-x="1869" d="M179 1430H278L255 101L983 1430H1088L1295 88L1838 1430H1929L1354 0H1202L1011 1306L297 0H148L179 1430Z" />
<glyph unicode="X" glyph-name="X" horiz-adv-x="1320" d="M599 715L179 1430H299L672 794L1299 1430H1429L724 715L1143 0H1024L651 636L24 0H-107L599 715Z" />
<glyph unicode="Y" glyph-name="Y" horiz-adv-x="1250" d="M179 1430H304L601 600L1244 1430H1359L637 500L537 0H432L532 500L179 1430Z" />
<glyph unicode="Z" glyph-name="Z" horiz-adv-x="1270" d="M1279 1430L1261 1340L144 90H991L973 0H-7L9 80L1145 1340H281L299 1430H1279Z" />
<glyph unicode="[" glyph-name="bracketleft" horiz-adv-x="565" d="M674 1430L656 1340H381L55 -290H330L312 -380H-58L304 1430H674Z" />
<glyph unicode="\" glyph-name="backslash" horiz-adv-x="975" d="M179 1430H284L723 0H618L179 1430Z" />
<glyph unicode="]" glyph-name="bracketright" horiz-adv-x="565" d="M549 1430L187 -380H-183L-165 -290H110L436 1340H161L179 1430H549Z" />
<glyph unicode="^" glyph-name="asciicircum" horiz-adv-x="1070" d="M604 1430H754L1008 700H898L664 1373L168 700H58L604 1430Z" />
<glyph unicode="_" glyph-name="underscore" horiz-adv-x="1070" d="M893 0L875 -90H-125L-107 0H893Z" />
<glyph unicode="`" glyph-name="grave" horiz-adv-x="523" d="M519 1191H435L244 1430H403L519 1191Z" />
<glyph unicode="a" glyph-name="a" horiz-adv-x="1127" d="M906 932Q776 956 636 956Q261 956 175 523Q90 100 347 100Q591 100 791 354L906 932ZM825 0H740L770 250Q562 0 326 0Q-32 0 72 521Q178 1050 663 1050Q876 1050 1026 1007L825 0Z" />
<glyph unicode="b" glyph-name="b" horiz-adv-x="1128" d="M148 123Q313 94 443 94Q793 94 887 563Q964 950 717 950Q503 950 263 696L148 123ZM304 1430H409L283 800Q532 1050 748 1050Q1086 1050 988 556Q876 0 433 0Q207 0 27 43L304 1430Z" />
<glyph unicode="c" glyph-name="c" horiz-adv-x="970" d="M764 130Q608 0 408 0Q-32 0 75 535Q178 1050 668 1050Q818 1050 942 1020L924 930Q790 960 660 960Q275 960 190 535Q101 90 436 90Q616 90 784 230L764 130Z" />
<glyph unicode="d" glyph-name="d" horiz-adv-x="1127" d="M825 0H740L770 250Q562 0 326 0Q-32 0 72 521Q178 1050 663 1050Q809 1050 926 1030L1006 1430H1111L825 0ZM906 932Q776 956 636 956Q261 956 175 523Q90 100 347 100Q591 100 791 354L906 932Z" />
<glyph unicode="e" glyph-name="e" horiz-adv-x="1075" d="M1033 1050T978 776Q921 492 551 492H171Q91 90 467 90Q676 90 843 230L823 130Q658 0 449 0Q-32 0 75 537Q178 1050 651 1050Q1033 1050 978 776ZM190 586H568Q835 586 874 779Q910 962 633 962Q283
962 190 586Z" />
<glyph unicode="f" glyph-name="f" horiz-adv-x="656" d="M333 1050H728L710 960H315L139 80Q75 -238 -106 -368L-168 -303Q-26 -218 34 80L238 1101Q314 1482 686 1482Q815 1482 912 1442L894 1352Q803 1392 667 1392Q401 1392 342 1099L333 1050Z" />
<glyph unicode="g" glyph-name="g" horiz-adv-x="1127" d="M906 932Q776 956 636 956Q261 956 175 523Q90 100 347 100Q591 100 791 354L906 932ZM825 0Q749 -380 286 -380Q92 -380 -48 -330L-30 -240Q113 -290 306 -290Q662 -290 720 0L770 250Q562 0 326 0Q-32
0 72 521Q178 1050 663 1050Q876 1050 1026 1007L825 0Z" />
<glyph unicode="h" glyph-name="h" horiz-adv-x="1165" d="M18 0L304 1430H409L270 736Q517 1050 780 1050Q1073 1050 1012 745L863 0H758L907 745Q949 956 756 956Q497 956 248 623L123 0H18Z" />
<glyph unicode="i" glyph-name="i" horiz-adv-x="465" d="M439 1430L415 1310H290L314 1430H439ZM353 1050L143 0H38L248 1050H353Z" />
<glyph unicode="j" glyph-name="j" horiz-adv-x="465" d="M439 1430L415 1310H290L314 1430H439ZM353 1050L159 80Q95 -238 -86 -368L-148 -303Q-6 -218 54 80L248 1050H353Z" />
<glyph unicode="k" glyph-name="k" horiz-adv-x="1111" d="M8 0L294 1430H399L267 768Q516 1050 786 1050Q1078 1050 1023 777Q977 547 601 413L894 0H765L500 395L513 458Q877 569 917 768Q955 960 745 960Q502 960 246 666L113 0H8Z" />
<glyph unicode="l" glyph-name="l" horiz-adv-x="465" d="M429 1430L143 0H38L324 1430H429Z" />
<glyph unicode="m" glyph-name="m" horiz-adv-x="1795" d="M18 0L228 1050H313L271 738Q475 1050 723 1050Q1013 1050 952 746Q1165 1050 1411 1050Q1703 1050 1636 715L1493 0H1388L1531 715Q1579 956 1391 956Q1133 956 937 620L813 0H708L851 715Q899 956 703
956Q457 956 247 620L123 0H18Z" />
<glyph unicode="n" glyph-name="n" horiz-adv-x="1165" d="M18 0L228 1050H313L270 736Q517 1050 780 1050Q1073 1050 1012 745L863 0H758L907 745Q949 956 756 956Q497 956 248 623L123 0H18Z" />
<glyph unicode="o" glyph-name="o" horiz-adv-x="1160" d="M89 80T454 80Q819 80 909 529Q997 970 632 970Q267 970 179 529Q89 80 454 80ZM73 525Q180 1060 650 1060Q1120 1060 1013 525Q906 -9 436 -9Q-32 -9 73 525Z" />
<glyph unicode="p" glyph-name="p" horiz-adv-x="1128" d="M148 123Q313 94 443 94Q793 94 887 563Q964 950 717 950Q503 950 262 696L148 123ZM228 1049H313L283 800Q532 1050 748 1050Q1086 1050 987 556Q876 0 433 0Q268 0 128 23L47 -380H-58L228 1049Z" />
<glyph unicode="q" glyph-name="q" horiz-adv-x="1127" d="M906 932Q776 956 636 956Q261 956 175 523Q90 100 347 100Q591 100 791 354L906 932ZM749 -380H644L770 250Q562 0 326 0Q-32 0 72 521Q178 1050 663 1050Q876 1050 1026 1007L749 -380Z" />
<glyph unicode="r" glyph-name="r" horiz-adv-x="685" d="M18 0L228 1050H313L258 676Q474 1050 718 1050L697 946Q459 946 240 583L123 0H18Z" />
<glyph unicode="s" glyph-name="s" horiz-adv-x="1030" d="M8 50L28 150Q191 90 360 90Q691 90 733 300Q767 470 522 470H392Q62 470 118 750Q178 1050 615 1050Q783 1050 948 1000L928 900Q765 960 597 960Q265 960 223 750Q187 570 412 570H542Q892 570 838
300Q778 0 342 0Q173 0 8 50Z" />
<glyph unicode="t" glyph-name="t" horiz-adv-x="627" d="M258 1220H322L307 1050H612L594 960H308L175 297Q134 90 286 90H420L402 0H270Q14 0 71 283L258 1220Z" />
<glyph unicode="u" glyph-name="u" horiz-adv-x="1165" d="M1073 1050L863 0H778L821 314Q574 0 291 0Q18 0 79 305L228 1050H333L184 305Q142 94 315 94Q594 94 843 427L968 1050H1073Z" />
<glyph unicode="v" glyph-name="v" horiz-adv-x="1030" d="M78 1050H198L390 91L968 1050H1088L431 0H309L78 1050Z" />
<glyph unicode="w" glyph-name="w" horiz-adv-x="1675" d="M288 1050H393Q248 825 187 520Q101 90 356 90Q661 90 753 550L853 1050H958L858 550Q766 90 1071 90Q1326 90 1412 520Q1473 825 1418 1050H1523Q1578 825 1517 520Q1413 0 1053 0Q748 0 761 339Q643
0 338 0Q-22 0 82 520Q143 825 288 1050Z" />
<glyph unicode="x" glyph-name="x" horiz-adv-x="1010" d="M406 525L103 1050H223L479 606L913 1050H1043L531 525L833 0H713L457 444L23 0H-107L406 525Z" />
<glyph unicode="y" glyph-name="y" horiz-adv-x="1165" d="M821 314Q574 0 291 0Q18 0 79 305L228 1050H333L184 305Q142 94 315 94Q594 94 843 427L968 1050H1073L863 0Q787 -380 324 -380Q130 -380 -10 -330L8 -240Q151 -290 344 -290Q700 -290 758 0L821 314Z" />
<glyph unicode="z" glyph-name="z" horiz-adv-x="990" d="M198 1050H948L930 960L109 90H736L718 0H-32L-14 90L805 960H180L198 1050Z" />
<glyph unicode="{" glyph-name="braceleft" horiz-adv-x="590" d="M699 1430Q534 1254 473 952Q403 600 198 525Q373 450 303 98Q242 -204 337 -380H232Q137 -204 198 98Q274 480 64 480L82 570Q292 570 368 952Q429 1254 594 1430H699Z" />
<glyph unicode="|" glyph-name="bar" horiz-adv-x="425" d="M409 1430L47 -380H-58L304 1430H409Z" />
<glyph unicode="}" glyph-name="braceright" horiz-adv-x="590" d="M284 1430Q379 1254 318 952Q242 570 452 570L434 480Q224 480 148 98Q87 -204 -78 -380H-183Q-18 -204 43 98Q113 450 318 525Q143 600 213 952Q274 1254 179 1430H284Z" />
<glyph unicode="~" glyph-name="asciitilde" horiz-adv-x="970" d="M78 550Q148 611 252 611Q338 611 447 570Q556 530 646 530Q755 530 836 590L818 500Q748 440 644 440Q558 440 449 480Q340 521 250 521Q141 521 60 460L78 550Z" />
<glyph unicode="&#xa0;" glyph-name="nbspace" horiz-adv-x="518" />
<glyph unicode="&#xa1;" glyph-name="exclamdown" horiz-adv-x="425" d="M-58 -380L154 680H259L47 -380H-58ZM207 945L228 1050H333L312 945H207Z" />
<glyph unicode="&#xa2;" glyph-name="cent" horiz-adv-x="970" d="M617 1237L655 1430H770L732 1241Q862 1237 970 1211L952 1121Q818 1151 688 1151Q303 1151 218 726Q129 281 464 281Q644 281 812 421L792 321Q671 220 524 198L484 0H369L408 192Q0 209 103
726Q198 1198 617 1237Z" />
<glyph unicode="&#xa3;" glyph-name="sterling" horiz-adv-x="1237" d="M-20 62Q181 137 237 413Q260 530 218 704T205 1027Q288 1440 826 1440Q1116 1440 1253 1340L1229 1220Q1097 1350 811 1350Q387 1350 323 1029Q294 885 326 770H772L754 680H340Q366 516
346 416Q319 279 223 118Q264 122 308 122Q445 122 597 79Q654 62 714 62Q859 62 1017 160L995 50Q858 -34 694 -34Q600 -34 499 -6Q376 26 259 26Q106 26 -38 -30L-20 62Z" />
<glyph unicode="&#xa4;" glyph-name="currency" horiz-adv-x="1119" d="M262 786L150 906L233 978L330 837Q453 911 607 911Q761 911 841 834L993 972L1049 906L881 780Q942 673 914 535Q881 366 784 273L900 163L816 91L724 224Q590 144 445 144Q301 144 198
224L56 91L-1 153L159 273Q103 376 132 525Q164 682 262 786ZM216 529Q155 223 460 223Q765 223 826 529Q887 833 582 833Q277 833 216 529Z" />
<glyph unicode="&#xa5;" glyph-name="yen" horiz-adv-x="1270" d="M204 1430H329L639 769L1219 1430H1354L721 730H1094L1076 640H660L626 469H1042L1024 379H608L532 0H427L503 379H114L132 469H521L555 640H166L184 730H531L204 1430Z" />
<glyph unicode="&#xa6;" glyph-name="brokenbar" horiz-adv-x="425" d="M193 350L47 -380H-58L88 350H193ZM408 1430L262 700H158L304 1430H408Z" />
<glyph unicode="&#xa7;" glyph-name="section" horiz-adv-x="1070" d="M26 40L46 140Q209 80 398 80Q729 80 769 280Q803 450 528 450H418Q58 450 112 720Q142 868 315 926Q163 976 198 1150Q256 1440 713 1440Q881 1440 1046 1390L1026 1290Q863 1350 695 1350Q343
1350 303 1150Q269 980 524 980H634Q1014 980 961 713Q929 553 753 499Q905 437 874 280Q816 -10 380 -10Q191 -10 26 40ZM181 538T446 538H556Q821 538 854 704Q891 891 626 891H516Q251 891 216 717Q181 538 446 538Z" />
<glyph unicode="&#xa8;" glyph-name="dieresis" horiz-adv-x="635" d="M685 1410L659 1280H524L550 1410H685ZM365 1410L339 1280H204L230 1410H365Z" />
<glyph unicode="&#xa9;" glyph-name="copyright" horiz-adv-x="1785" d="M129 80T752 80Q1404 80 1532 719Q1658 1350 1026 1350Q383 1350 257 719Q129 80 752 80ZM153 723Q296 1440 1044 1440Q1781 1440 1638 723Q1491 -10 754 -10Q6 -10 153 723ZM1108 336Q973
285 808 285Q392 285 481 728Q564 1144 980 1144Q1145 1144 1260 1093L1240 995Q1127 1053 976 1053Q651 1053 586 728Q515 376 840 376Q991 376 1128 434L1108 336Z" />
<glyph unicode="&#xaa;" glyph-name="ordfeminine" horiz-adv-x="629" d="M572 1342Q547 1354 477 1354Q310 1354 271 1162Q236 986 340 986Q447 986 526 1113L572 1342ZM568 906H495L510 1031Q426 906 308 906Q139 906 190 1161Q244 1431 497 1431Q603 1431 668
1409L568 906Z" />
<glyph unicode="&#xab;" glyph-name="guillemotleft" horiz-adv-x="869" d="M392 525L725 900H847L514 525L697 150H575L392 525ZM73 525L406 900H528L195 525L378 150H256L73 525Z" />
<glyph unicode="&#xac;" glyph-name="logicalnot" horiz-adv-x="1105" d="M178 1050H1063L995 710H905L955 960H160L178 1050Z" />
<glyph unicode="&#xad;" glyph-name="minus" horiz-adv-x="970" d="M832 570L814 480H64L82 570H832Z" />
<glyph unicode="&#xae;" glyph-name="registered" horiz-adv-x="1183" d="M424 756L531 1292H760Q913 1292 887 1164Q866 1059 706 1009L840 756H749L626 997L635 1042Q794 1067 813 1161Q827 1235 741 1235H588L493 756H424ZM224 664T581 664Q941 664 1013 1025Q1087
1394 727 1394Q370 1394 296 1025Q224 664 581 664ZM223 1023Q308 1450 738 1450Q1171 1450 1086 1023Q1003 608 570 608Q152 608 223 1023Z" />
<glyph unicode="&#xaf;" glyph-name="overscore" horiz-adv-x="700" d="M744 1430L726 1340H226L244 1430H744Z" />
<glyph unicode="0;" glyph-name="degree" horiz-adv-x="772" d="M255 985T443 985Q627 985 664 1172Q701 1356 517 1356Q329 1356 292 1172Q255 985 443 985ZM202 1170Q254 1430 532 1430Q806 1430 754 1170Q702 911 428 911Q150 911 202 1170Z" />
<glyph unicode="1;" glyph-name="plusminus" horiz-adv-x="970" d="M432 720L498 1050H608L542 720H862L844 630H524L458 300H348L414 630H94L112 720H432ZM736 90L718 0H-32L-14 90H736Z" />
<glyph unicode="2;" glyph-name="twosuperior" horiz-adv-x="610" d="M60 710L79 805Q517 1058 547 1210Q572 1335 412 1335Q302 1335 194 1280L214 1380Q321 1430 431 1430Q694 1430 650 1210Q615 1035 232 805H569L550 710H60Z" />
<glyph unicode="3;" glyph-name="threesuperior" horiz-adv-x="598" d="M198 1400Q304 1430 404 1430Q682 1430 641 1226Q619 1118 516 1073Q602 1030 580 920Q537 706 259 706Q159 706 65 736L85 836Q178 800 278 800Q454 800 478 920Q499 1026 363 1026H199L218
1120H380Q518 1120 539 1226Q561 1336 385 1336Q285 1336 178 1300L198 1400Z" />
<glyph unicode="4;" glyph-name="acute" horiz-adv-x="523" d="M408 1430H567L280 1191H196L408 1430Z" />
<glyph unicode="5;" glyph-name="mu" horiz-adv-x="1165" d="M141 93L47 -380H-58L228 1050H333L184 305Q142 94 315 94Q594 94 843 427L968 1050H1073L863 0H778L821 314Q574 0 321 0Q187 0 141 93Z" />
<glyph unicode="6;" glyph-name="paragraph" horiz-adv-x="973" d="M225 -434L419 538Q-24 538 66 986Q154 1430 597 1430H1107L1089 1340H939L585 -434H485L839 1340H679L325 -434H225Z" />
<glyph unicode="7;" glyph-name="middot" horiz-adv-x="430" d="M83 525Q102 620 197 620Q292 620 273 525Q254 430 159 430Q64 430 83 525Z" />
<glyph unicode="8;" glyph-name="cedilla" horiz-adv-x="657" d="M-98 -284Q-2 -344 106 -344Q254 -344 273 -249Q291 -155 168 -155H15L192 75H287L176 -77Q400 -77 366 -249Q331 -422 90 -422Q-18 -422 -116 -372L-98 -284Z" />
<glyph unicode="9;" glyph-name="onesuperior" horiz-adv-x="348" d="M136 710L256 1311H180L191 1366L381 1426L238 710H136Z" />
<glyph unicode="a;" glyph-name="ordmasculine" horiz-adv-x="680" d="M237 980T394 980Q552 980 590 1170Q627 1356 469 1356Q312 1356 275 1170Q237 980 394 980ZM191 1168Q244 1430 484 1430Q724 1430 671 1168Q619 906 379 906Q141 906 191 1168Z" />
<glyph unicode="b;" glyph-name="guillemotright" horiz-adv-x="869" d="M70 150H-52L281 525L98 900H220L403 525L70 150ZM389 150H267L600 525L417 900H539L722 525L389 150Z" />
<glyph unicode="c;" glyph-name="onequarter" horiz-adv-x="1469" d="M93 0H-32L1199 1430H1324L93 0ZM878 690Q984 720 1084 720Q1361 720 1320 516Q1299 408 1196 363Q1281 320 1259 210Q1216 -4 939 -4Q839 -4 745 26L765 126Q858 90 958 90Q1132 90 1156
210Q1177 316 1041 316H877L896 410H1059Q1196 410 1217 516Q1239 626 1065 626Q965 626 858 590L878 690ZM239 710L359 1311H283L294 1366L484 1426L341 710H239Z" />
<glyph unicode="d;" glyph-name="onehalf" horiz-adv-x="1462" d="M93 0H-32L1199 1430H1324L93 0ZM720 0L739 95Q1178 348 1208 500Q1233 625 1073 625Q963 625 854 570L874 670Q982 720 1092 720Q1354 720 1310 500Q1275 325 891 95H1229L1210 0H720ZM239
710L359 1311H283L294 1366L484 1426L341 710H239Z" />
<glyph unicode="e;" glyph-name="threequarters" horiz-adv-x="1510" d="M184 0H59L1290 1430H1415L184 0ZM1134 0H1032L1062 150H700L719 244L1051 714H1153L826 244H1081L1142 548H1244L1183 244L1249 206L1238 150H1164L1134 0ZM248 1400Q354 1430 454
1430Q731 1430 690 1226Q669 1118 566 1073Q651 1030 629 920Q586 706 309 706Q209 706 115 736L135 836Q228 800 328 800Q502 800 526 920Q547 1026 411 1026H247L266 1120H429Q566 1120 587 1226Q609 1336 435 1336Q335 1336 228 1300L248 1400Z" />
<glyph unicode="f;" glyph-name="questiondown" horiz-adv-x="1135" d="M777 945L798 1050H903L882 945H777ZM817 -330Q597 -380 407 -380Q-108 -380 -30 10Q48 400 545 400H668L724 680H829L755 310H530Q135 310 75 10Q15 -290 425 -290Q615 -290 835 -240L817
-330Z" />
<glyph unicode="0;" glyph-name="Agrave" horiz-adv-x="1492" d="M12 0H-107L826 1430H951L1315 0H1197L1081 480H440L489 570H1060L873 1348L12 0ZM950 1571H866L675 1810H834L950 1571Z" />
<glyph unicode="1;" glyph-name="Aacute" horiz-adv-x="1492" d="M12 0H-107L826 1430H951L1315 0H1197L1081 480H440L489 570H1060L873 1348L12 0ZM1006 1810H1165L878 1571H794L1006 1810Z" />
<glyph unicode="2;" glyph-name="Acircumflex" horiz-adv-x="1492" d="M12 0H-107L826 1430H951L1315 0H1197L1081 480H440L489 570H1060L873 1348L12 0ZM895 1810H1005L1148 1550H1048L935 1744L748 1550H648L895 1810Z" />
<glyph unicode="3;" glyph-name="Atilde" horiz-adv-x="1492" d="M12 0H-107L826 1430H951L1315 0H1197L1081 480H440L489 570H1060L873 1348L12 0ZM691 1764Q760 1810 830 1810Q882 1810 935 1784Q988 1758 1044 1758Q1119 1758 1199 1804L1181 1714Q1112
1668 1042 1668Q990 1668 937 1694Q884 1720 828 1720Q753 1720 673 1674L691 1764Z" />
<glyph unicode="4;" glyph-name="Adieresis" horiz-adv-x="1492" d="M12 0H-107L826 1430H951L1315 0H1197L1081 480H440L489 570H1060L873 1348L12 0ZM1174 1790L1148 1660H1013L1039 1790H1174ZM854 1790L828 1660H693L719 1790H854Z" />
<glyph unicode="5;" glyph-name="Aring" horiz-adv-x="1492" d="M902 1482Q1036 1482 1064 1619Q1091 1753 957 1753Q819 1753 792 1619Q764 1482 902 1482ZM15 0H-107L822 1424Q678 1452 711 1617Q751 1817 969 1817Q1183 1817 1143 1617Q1110 1449 953 1423L1315
0H1200L1084 480H443L492 570H1063L876 1348L15 0Z" />
<glyph unicode="6;" glyph-name="AE" horiz-adv-x="1895" d="M-107 0L786 1430H1884L1866 1340H948L1074 770H1717L1699 680H1095L1233 90H1636L1618 0H1127L841 1353L381 570H882L892 480H305L22 0H-107Z" />
<glyph unicode="7;" glyph-name="Ccedilla" horiz-adv-x="1405" d="M630 -7Q-25 34 115 735Q256 1440 1006 1440Q1211 1440 1394 1380L1376 1290Q1193 1350 1008 1350Q343 1350 220 735Q89 80 754 80Q939 80 1146 140L1128 50Q926 -9 726 -10L677 -77Q901
-77 866 -249Q832 -422 591 -422Q483 -422 385 -372L402 -284Q498 -344 606 -344Q754 -344 773 -249Q792 -155 669 -155H516L630 -7Z" />
<glyph unicode="8;" glyph-name="Egrave" horiz-adv-x="1248" d="M1243 1430L1225 1340H391L277 770H1077L1059 680H259L141 90H989L971 0H18L304 1430H1243ZM900 1571H816L625 1810H784L900 1571Z" />
<glyph unicode="9;" glyph-name="Eacute" horiz-adv-x="1248" d="M1243 1430L1225 1340H391L277 770H1077L1059 680H259L141 90H989L971 0H18L304 1430H1243ZM897 1810H1056L769 1571H685L897 1810Z" />
<glyph unicode="a;" glyph-name="Ecircumflex" horiz-adv-x="1248" d="M1243 1430L1225 1340H391L277 770H1077L1059 680H259L141 90H989L971 0H18L304 1430H1243ZM786 1810H896L1039 1550H939L826 1744L639 1550H539L786 1810Z" />
<glyph unicode="b;" glyph-name="Edieresis" horiz-adv-x="1248" d="M1243 1430L1225 1340H391L277 770H1077L1059 680H259L141 90H989L971 0H18L304 1430H1243ZM1064 1790L1038 1660H903L929 1790H1064ZM744 1790L718 1660H583L609 1790H744Z" />
<glyph unicode="c;" glyph-name="Igrave" horiz-adv-x="525" d="M459 1430L173 0H68L354 1430H459ZM486 1571H402L211 1810H370L486 1571Z" />
<glyph unicode="d;" glyph-name="Iacute" horiz-adv-x="525" d="M459 1430L173 0H68L354 1430H459ZM563 1810H722L435 1571H351L563 1810Z" />
<glyph unicode="e;" glyph-name="Icircumflex" horiz-adv-x="525" d="M460 1430L174 0H69L355 1430H460ZM432 1810H542L685 1550H585L472 1744L285 1550H185L432 1810Z" />
<glyph unicode="f;" glyph-name="Idieresis" horiz-adv-x="525" d="M469 1430L183 0H78L364 1430H469ZM710 1790L684 1660H549L575 1790H710ZM390 1790L364 1660H229L255 1790H390Z" />
<glyph unicode="&#xd0;" glyph-name="Eth" horiz-adv-x="1470" d="M277 770H722L704 680H259L141 90H536Q1131 90 1264 754Q1381 1340 786 1340H391L277 770ZM154 680H-46L-28 770H172L304 1430H814Q1514 1430 1379 754Q1228 0 518 0H18L154 680Z" />
<glyph unicode="&#xd1;" glyph-name="Ntilde" horiz-adv-x="1505" d="M18 0L304 1430H419L1139 154L1394 1430H1489L1203 0H1118L375 1312L113 0H18ZM698 1764Q767 1810 837 1810Q889 1810 942 1784Q995 1758 1051 1758Q1126 1758 1206 1804L1188 1714Q1119 1668
1049 1668Q997 1668 944 1694Q891 1720 835 1720Q760 1720 680 1674L698 1764Z" />
<glyph unicode="&#xd2;" glyph-name="Ograve" horiz-adv-x="1645" d="M99 80T702 80Q1294 80 1422 719Q1548 1350 956 1350Q353 1350 227 719Q99 80 702 80ZM111 713Q256 1440 974 1440Q1681 1440 1536 713Q1391 -10 684 -10Q-34 -10 111 713ZM1106 1571H1022L831
1810H990L1106 1571Z" />
<glyph unicode="&#xd3;" glyph-name="Oacute" horiz-adv-x="1645" d="M99 80T702 80Q1294 80 1422 719Q1548 1350 956 1350Q353 1350 227 719Q99 80 702 80ZM111 713Q256 1440 974 1440Q1681 1440 1536 713Q1391 -10 684 -10Q-34 -10 111 713ZM1103 1810H1262L975
1571H891L1103 1810Z" />
<glyph unicode="&#xd4;" glyph-name="Ocircumflex" horiz-adv-x="1645" d="M99 80T702 80Q1294 80 1422 719Q1548 1350 956 1350Q353 1350 227 719Q99 80 702 80ZM111 713Q256 1440 974 1440Q1681 1440 1536 713Q1391 -10 684 -10Q-34 -10 111 713ZM992 1810H1102L1245
1550H1145L1032 1744L845 1550H745L992 1810Z" />
<glyph unicode="&#xd5;" glyph-name="Otilde" horiz-adv-x="1645" d="M99 80T702 80Q1294 80 1422 719Q1548 1350 956 1350Q353 1350 227 719Q99 80 702 80ZM111 713Q256 1440 974 1440Q1681 1440 1536 713Q1391 -10 684 -10Q-34 -10 111 713ZM788 1764Q857 1810
927 1810Q979 1810 1032 1784Q1085 1758 1141 1758Q1216 1758 1296 1804L1278 1714Q1209 1668 1139 1668Q1087 1668 1034 1694Q981 1720 925 1720Q850 1720 770 1674L788 1764Z" />
<glyph unicode="&#xd6;" glyph-name="Odieresis" horiz-adv-x="1645" d="M99 80T702 80Q1294 80 1422 719Q1548 1350 956 1350Q353 1350 227 719Q99 80 702 80ZM111 713Q256 1440 974 1440Q1681 1440 1536 713Q1391 -10 684 -10Q-34 -10 111 713ZM1260 1790L1234
1660H1099L1125 1790H1260ZM940 1790L914 1660H779L805 1790H940Z" />
<glyph unicode="&#xd7;" glyph-name="multiply" horiz-adv-x="821" d="M306 525L119 758L204 829L391 596L662 822L713 758L442 532L628 299L543 228L357 461L77 228L26 292L306 525Z" />
<glyph unicode="&#xd8;" glyph-name="Oslash" horiz-adv-x="1645" d="M361 164Q483 80 702 80Q1294 80 1422 719Q1488 1048 1358 1206L361 164ZM288 232L1284 1272Q1164 1350 956 1350Q353 1350 227 719Q161 391 288 232ZM282 82L203 0H66L204 145Q33 324 111
713Q256 1440 974 1440Q1219 1440 1362 1353L1435 1430H1573L1439 1291Q1615 1111 1536 713Q1391 -10 684 -10Q428 -10 282 82Z" />
<glyph unicode="&#xd9;" glyph-name="Ugrave" horiz-adv-x="1470" d="M128 552L304 1430H409L233 552Q139 80 609 80Q1079 80 1173 552L1349 1430H1454L1278 552Q1166 -10 591 -10Q16 -10 128 552ZM999 1571H915L724 1810H883L999 1571Z" />
<glyph unicode="&#xda;" glyph-name="Uacute" horiz-adv-x="1470" d="M128 552L304 1430H409L233 552Q139 80 609 80Q1079 80 1173 552L1349 1430H1454L1278 552Q1166 -10 591 -10Q16 -10 128 552ZM985 1810H1144L857 1571H773L985 1810Z" />
<glyph unicode="&#xdb;" glyph-name="Ucircumflex" horiz-adv-x="1470" d="M128 552L304 1430H409L233 552Q139 80 609 80Q1079 80 1173 552L1349 1430H1454L1278 552Q1166 -10 591 -10Q16 -10 128 552ZM884 1810H994L1137 1550H1037L924 1744L737 1550H637L884 1810Z" />
<glyph unicode="&#xdc;" glyph-name="Udieresis" horiz-adv-x="1470" d="M128 552L304 1430H409L233 552Q139 80 609 80Q1079 80 1173 552L1349 1430H1454L1278 552Q1166 -10 591 -10Q16 -10 128 552ZM1173 1790L1147 1660H1012L1038 1790H1173ZM853 1790L827
1660H692L718 1790H853Z" />
<glyph unicode="&#xdd;" glyph-name="Yacute" horiz-adv-x="1250" d="M179 1430H304L601 600L1244 1430H1359L637 500L537 0H432L532 500L179 1430ZM885 1810H1044L757 1571H673L885 1810Z" />
<glyph unicode="&#xde;" glyph-name="Thorn" horiz-adv-x="1263" d="M18 0L304 1430H409L347 1122H852Q1260 1122 1192 779Q1114 392 527 300L516 386Q1013 471 1073 771Q1125 1029 817 1029H329L123 0H18Z" />
<glyph unicode="&#xdf;" glyph-name="germandbls" horiz-adv-x="1166" d="M137 70Q72 -255 -106 -368L-168 -303Q-26 -218 34 80L209 959Q303 1427 757 1427Q1157 1427 1082 1050L1071 995Q726 892 695 737Q671 616 852 545T995 282Q939 0 565 0H363L381 90H585Q842
90 880 282Q908 423 731 489T589 734Q631 942 971 1050Q1028 1337 732 1337Q390 1337 314 956L137 70Z" />
<glyph unicode="&#xe0;" glyph-name="agrave" horiz-adv-x="1127" d="M906 932Q776 956 636 956Q261 956 175 523Q90 100 347 100Q591 100 791 354L906 932ZM825 0H740L770 250Q562 0 326 0Q-32 0 72 521Q178 1050 663 1050Q876 1050 1026 1007L825 0ZM792 1191H708L517
1430H676L792 1191Z" />
<glyph unicode="&#xe1;" glyph-name="aacute" horiz-adv-x="1127" d="M906 932Q776 956 636 956Q261 956 175 523Q90 100 347 100Q591 100 791 354L906 932ZM825 0H740L770 250Q562 0 326 0Q-32 0 72 521Q178 1050 663 1050Q876 1050 1026 1007L825 0ZM789 1430H948L661
1191H577L789 1430Z" />
<glyph unicode="&#xe2;" glyph-name="acircumflex" horiz-adv-x="1127" d="M906 932Q776 956 636 956Q261 956 175 523Q90 100 347 100Q591 100 791 354L906 932ZM825 0H740L770 250Q562 0 326 0Q-32 0 72 521Q178 1050 663 1050Q876 1050 1026 1007L825 0ZM678
1430H788L931 1170H831L718 1364L531 1170H431L678 1430Z" />
<glyph unicode="&#xe3;" glyph-name="atilde" horiz-adv-x="1127" d="M906 932Q776 956 636 956Q261 956 175 523Q90 100 347 100Q591 100 791 354L906 932ZM825 0H740L770 250Q562 0 326 0Q-32 0 72 521Q178 1050 663 1050Q876 1050 1026 1007L825 0ZM474 1384Q543
1430 613 1430Q665 1430 718 1404Q771 1378 827 1378Q902 1378 982 1424L964 1334Q895 1288 825 1288Q773 1288 720 1314Q667 1340 611 1340Q536 1340 456 1294L474 1384Z" />
<glyph unicode="&#xe4;" glyph-name="adieresis" horiz-adv-x="1127" d="M906 932Q776 956 636 956Q261 956 175 523Q90 100 347 100Q591 100 791 354L906 932ZM825 0H740L770 250Q562 0 326 0Q-32 0 72 521Q178 1050 663 1050Q876 1050 1026 1007L825 0ZM956
1410L930 1280H795L821 1410H956ZM636 1410L610 1280H475L501 1410H636Z" />
<glyph unicode="&#xe5;" glyph-name="aring" horiz-adv-x="1127" d="M906 932Q776 956 636 956Q261 956 175 523Q90 100 347 100Q591 100 791 354L906 932ZM825 0H740L770 250Q562 0 326 0Q-32 0 72 521Q178 1050 663 1050Q876 1050 1026 1007L825 0ZM556 1226T694
1226Q828 1226 855 1363Q882 1497 748 1497Q610 1497 583 1363Q556 1226 694 1226ZM503 1361Q543 1561 761 1561Q975 1561 935 1361Q895 1162 681 1162Q463 1162 503 1361Z" />
<glyph unicode="&#xe6;" glyph-name="ae" horiz-adv-x="1775" d="M466 510Q165 510 123 300Q81 90 331 90Q523 90 716 192L776 490Q613 510 466 510ZM890 586H1268Q1535 586 1574 779Q1610 962 1333 962Q983 962 890 586ZM814 155Q558 0 313 0Q-42 0 17 297Q78
600 484 600Q631 600 794 580L822 719Q870 960 567 960Q405 960 225 910L243 1000Q423 1050 585 1050Q881 1050 918 855Q1049 1050 1351 1050Q1733 1050 1678 776Q1621 492 1251 492H871Q791 90 1167 90Q1376 90 1543 230L1523 130Q1358 0 1149 0Q891 0 814 155Z"
/>
<glyph unicode="&#xe7;" glyph-name="ccedilla" horiz-adv-x="970" d="M353 2Q-25 35 75 535Q178 1050 668 1050Q818 1050 942 1020L924 930Q790 960 660 960Q275 960 190 535Q101 90 436 90Q616 90 784 230L764 130Q625 14 450 1L393 -77Q617 -77 582 -249Q548
-422 307 -422Q199 -422 101 -372L118 -284Q214 -344 322 -344Q470 -344 489 -249Q508 -155 385 -155H232L353 2Z" />
<glyph unicode="&#xe8;" glyph-name="egrave" horiz-adv-x="1075" d="M1033 1050T978 776Q921 492 551 492H171Q91 90 467 90Q676 90 843 230L823 130Q658 0 449 0Q-32 0 75 537Q178 1050 651 1050Q1033 1050 978 776ZM190 586H568Q835 586 874 779Q910 962 633
962Q283 962 190 586ZM791 1191H707L516 1430H675L791 1191Z" />
<glyph unicode="&#xe9;" glyph-name="eacute" horiz-adv-x="1075" d="M1033 1050T978 776Q921 492 551 492H171Q91 90 467 90Q676 90 843 230L823 130Q658 0 449 0Q-32 0 75 537Q178 1050 651 1050Q1033 1050 978 776ZM190 586H568Q835 586 874 779Q910 962 633
962Q283 962 190 586ZM748 1430H907L620 1191H536L748 1430Z" />
<glyph unicode="&#xea;" glyph-name="ecircumflex" horiz-adv-x="1075" d="M1033 1050T978 776Q921 492 551 492H171Q91 90 467 90Q676 90 843 230L823 130Q658 0 449 0Q-32 0 75 537Q178 1050 651 1050Q1033 1050 978 776ZM190 586H568Q835 586 874 779Q910 962
633 962Q283 962 190 586ZM637 1430H747L890 1170H790L677 1364L490 1170H390L637 1430Z" />
<glyph unicode="&#xeb;" glyph-name="edieresis" horiz-adv-x="1075" d="M1033 1050T978 776Q921 492 551 492H171Q91 90 467 90Q676 90 843 230L823 130Q658 0 449 0Q-32 0 75 537Q178 1050 651 1050Q1033 1050 978 776ZM190 586H568Q835 586 874 779Q910 962
633 962Q283 962 190 586ZM925 1410L899 1280H764L790 1410H925ZM605 1410L579 1280H444L470 1410H605Z" />
<glyph unicode="&#xec;" glyph-name="igrave" horiz-adv-x="445" d="M343 1050L133 0H28L238 1050H343ZM682 1191H598L407 1430H566L682 1191Z" />
<glyph unicode="&#xed;" glyph-name="iacute" horiz-adv-x="445" d="M343 1050L133 0H28L238 1050H343ZM423 1430H582L295 1191H211L423 1430Z" />
<glyph unicode="&#xee;" glyph-name="icircumflex" horiz-adv-x="445" d="M344 1050L134 0H29L239 1050H344ZM568 1430H678L821 1170H721L608 1364L421 1170H321L568 1430Z" />
<glyph unicode="&#xef;" glyph-name="idieresis" horiz-adv-x="445" d="M353 1050L143 0H38L248 1050H353ZM856 1410L830 1280H695L721 1410H856ZM536 1410L510 1280H375L401 1410H536Z" />
<glyph unicode="&#xf0;" glyph-name="eth" horiz-adv-x="1140" d="M910 586Q933 702 943 840Q849 970 625 970Q263 970 177 540Q85 80 448 80Q809 80 910 586ZM941 1282Q1113 1077 1016 590Q896 -10 429 -10Q-34 -10 76 540Q178 1050 632 1050Q839 1050 948 950Q927
1136 832 1233L560 1111L578 1200L766 1284Q672 1340 532 1340H316L334 1430H552Q762 1430 883 1337L1091 1430L1073 1341L941 1282Z" />
<glyph unicode="&#xf1;" glyph-name="ntilde" horiz-adv-x="1165" d="M18 0L228 1050H313L270 736Q517 1050 780 1050Q1073 1050 1012 745L863 0H758L907 745Q949 956 756 956Q497 956 248 623L123 0H18ZM468 1384Q537 1430 607 1430Q659 1430 712 1404Q765 1378
821 1378Q896 1378 976 1424L958 1334Q889 1288 819 1288Q767 1288 714 1314Q661 1340 605 1340Q530 1340 450 1294L468 1384Z" />
<glyph unicode="&#xf2;" glyph-name="ograve" horiz-adv-x="1160" d="M89 80T454 80Q819 80 909 529Q997 970 632 970Q267 970 179 529Q89 80 454 80ZM73 525Q180 1060 650 1060Q1120 1060 1013 525Q906 -9 436 -9Q-32 -9 73 525ZM784 1191H700L509 1430H668L784 1191Z" />
<glyph unicode="&#xf3;" glyph-name="oacute" horiz-adv-x="1160" d="M89 80T454 80Q819 80 909 529Q997 970 632 970Q267 970 179 529Q89 80 454 80ZM73 525Q180 1060 650 1060Q1120 1060 1013 525Q906 -9 436 -9Q-32 -9 73 525ZM780 1430H939L652 1191H568L780 1430Z" />
<glyph unicode="&#xf4;" glyph-name="ocircumflex" horiz-adv-x="1160" d="M89 80T454 80Q819 80 909 529Q997 970 632 970Q267 970 179 529Q89 80 454 80ZM73 525Q180 1060 650 1060Q1120 1060 1013 525Q906 -9 436 -9Q-32 -9 73 525ZM669 1430H779L922 1170H822L709
1364L522 1170H422L669 1430Z" />
<glyph unicode="&#xf5;" glyph-name="otilde" horiz-adv-x="1160" d="M89 80T454 80Q819 80 909 529Q997 970 632 970Q267 970 179 529Q89 80 454 80ZM73 525Q180 1060 650 1060Q1120 1060 1013 525Q906 -9 436 -9Q-32 -9 73 525ZM465 1384Q534 1430 604 1430Q656
1430 709 1404Q762 1378 818 1378Q893 1378 973 1424L955 1334Q886 1288 816 1288Q764 1288 711 1314Q658 1340 602 1340Q527 1340 447 1294L465 1384Z" />
<glyph unicode="&#xf6;" glyph-name="odieresis" horiz-adv-x="1160" d="M89 80T454 80Q819 80 909 529Q997 970 632 970Q267 970 179 529Q89 80 454 80ZM73 525Q180 1060 650 1060Q1120 1060 1013 525Q906 -9 436 -9Q-32 -9 73 525ZM948 1410L922 1280H787L813
1410H948ZM628 1410L602 1280H467L493 1410H628Z" />
<glyph unicode="&#xf7;" glyph-name="divide" horiz-adv-x="1005" d="M867 570L849 480H64L82 570H867ZM489 280L463 150H318L344 280H489ZM613 900L587 770H442L468 900H613Z" />
<glyph unicode="&#xf8;" glyph-name="oslash" horiz-adv-x="1160" d="M104 136Q23 269 73 525Q180 1060 650 1060Q826 1060 921 985L983 1050H1121L986 910Q1063 777 1013 525Q906 -9 436 -9Q265 -9 171 63L110 0H-27L104 136ZM903 823L246 141Q319 80 454 80Q819
80 909 529Q946 715 903 823ZM188 223L844 906Q771 970 632 970Q267 970 179 529Q140 333 188 223Z" />
<glyph unicode="&#xf9;" glyph-name="ugrave" horiz-adv-x="1165" d="M1073 1050L863 0H778L821 314Q574 0 291 0Q18 0 79 305L228 1050H333L184 305Q142 94 315 94Q594 94 843 427L968 1050H1073ZM786 1191H702L511 1430H670L786 1191Z" />
<glyph unicode="&#xfa;" glyph-name="uacute" horiz-adv-x="1165" d="M1073 1050L863 0H778L821 314Q574 0 291 0Q18 0 79 305L228 1050H333L184 305Q142 94 315 94Q594 94 843 427L968 1050H1073ZM783 1430H942L655 1191H571L783 1430Z" />
<glyph unicode="&#xfb;" glyph-name="ucircumflex" horiz-adv-x="1165" d="M1073 1050L863 0H778L821 314Q574 0 291 0Q18 0 79 305L228 1050H333L184 305Q142 94 315 94Q594 94 843 427L968 1050H1073ZM672 1430H782L925 1170H825L712 1364L525 1170H425L672 1430Z" />
<glyph unicode="&#xfc;" glyph-name="udieresis" horiz-adv-x="1165" d="M1073 1050L863 0H778L821 314Q574 0 291 0Q18 0 79 305L228 1050H333L184 305Q142 94 315 94Q594 94 843 427L968 1050H1073ZM950 1410L924 1280H789L815 1410H950ZM630 1410L604 1280H469L495
1410H630Z" />
<glyph unicode="&#xfd;" glyph-name="yacute" horiz-adv-x="1165" d="M821 314Q574 0 291 0Q18 0 79 305L228 1050H333L184 305Q142 94 315 94Q594 94 843 427L968 1050H1073L863 0Q787 -380 324 -380Q130 -380 -10 -330L8 -240Q151 -290 344 -290Q700 -290 758
0L821 314ZM783 1430H942L655 1191H571L783 1430Z" />
<glyph unicode="&#xfe;" glyph-name="thorn" horiz-adv-x="1128" d="M148 123Q313 94 443 94Q793 94 887 563Q964 950 717 950Q503 950 262 696L148 123ZM304 1430H409L283 800Q532 1050 748 1050Q1086 1050 987 556Q876 0 433 0Q268 0 128 23L47 -380H-58L304 1430Z" />
<glyph unicode="&#xff;" glyph-name="ydieresis" horiz-adv-x="1165" d="M821 314Q574 0 291 0Q18 0 79 305L228 1050H333L184 305Q142 94 315 94Q594 94 843 427L968 1050H1073L863 0Q787 -380 324 -380Q130 -380 -10 -330L8 -240Q151 -290 344 -290Q700 -290
758 0L821 314ZM950 1410L924 1280H789L815 1410H950ZM630 1410L604 1280H469L495 1410H630Z" />
</font>
</defs>
</svg>
